<svg width="18" height="16" viewBox="0 0 18 16" fill="none" xmlns="http://www.w3.org/2000/svg">
<path d="M2.8125 0.509374L2.81205 0.509376C2.28496 0.511756 1.78013 0.722198 1.40741 1.09491C1.0347 1.46763 0.824256 1.97246 0.821876 2.49955H0.821875V2.5L0.821874 13.5L0.821876 13.5005C0.824256 14.0275 1.0347 14.5324 1.40741 14.9051C1.78013 15.2778 2.28496 15.4882 2.81205 15.4906H2.8125H16.5625C16.9081 15.4906 17.2396 15.3533 17.4839 15.1089C17.7283 14.8646 17.8656 14.5331 17.8656 14.1875V4.5625C17.8656 4.21689 17.7283 3.88543 17.4839 3.64105C17.2396 3.39667 16.9081 3.25938 16.5625 3.25938H2.8125C2.6111 3.25938 2.41795 3.17937 2.27554 3.03696C2.13313 2.89455 2.05313 2.7014 2.05313 2.5C2.05313 2.2986 2.13313 2.10545 2.27554 1.96304C2.41795 1.82063 2.6111 1.74063 2.8125 1.74063H14.5C14.6633 1.74063 14.8199 1.67576 14.9353 1.56031C15.0508 1.44486 15.1156 1.28827 15.1156 1.125C15.1156 0.961726 15.0508 0.80514 14.9353 0.689687C14.8199 0.574235 14.6633 0.509375 14.5 0.509375L2.8125 0.509374ZM2.05313 13.5V4.33993C2.29359 4.43851 2.55133 4.48988 2.81221 4.49062H2.8125H16.5625C16.5816 4.49062 16.5998 4.4982 16.6133 4.51168C16.6268 4.52516 16.6344 4.54344 16.6344 4.5625V14.1875C16.6344 14.2066 16.6268 14.2248 16.6133 14.2383C16.5998 14.2518 16.5816 14.2594 16.5625 14.2594H2.8125C2.6111 14.2594 2.41795 14.1794 2.27554 14.037C2.13313 13.8945 2.05313 13.7014 2.05313 13.5ZM14.2664 9.908C14.3719 9.75023 14.4281 9.56475 14.4281 9.375C14.4281 9.12056 14.327 8.87654 14.1471 8.69662C13.9672 8.5167 13.7232 8.41563 13.4688 8.41563C13.279 8.41563 13.0935 8.47189 12.9358 8.57731C12.778 8.68273 12.655 8.83256 12.5824 9.00786C12.5098 9.18317 12.4908 9.37606 12.5278 9.56216C12.5648 9.74826 12.6562 9.91921 12.7904 10.0534C12.9245 10.1876 13.0955 10.2789 13.2816 10.3159C13.4677 10.353 13.6606 10.334 13.8359 10.2613C14.0112 10.1887 14.161 10.0658 14.2664 9.908Z" fill="#0A0A0A" stroke="black" stroke-width="0.2"/>
</svg>
