<svg width="12" height="12" viewBox="0 0 12 12" fill="none" xmlns="http://www.w3.org/2000/svg">
<path d="M0.166748 10.667H11.8334V11.8337H0.166748V10.667ZM1.33341 6.00033H2.50008V10.0837H1.33341V6.00033ZM4.25008 6.00033H5.41675V10.0837H4.25008V6.00033ZM6.58341 6.00033H7.75008V10.0837H6.58341V6.00033ZM9.50008 6.00033H10.6667V10.0837H9.50008V6.00033ZM0.166748 3.08366L6.00008 0.166992L11.8334 3.08366V5.41699H0.166748V3.08366ZM1.33341 3.80466V4.25033H10.6667V3.80466L6.00008 1.47133L1.33341 3.80466ZM6.00008 3.66699C5.84537 3.66699 5.697 3.60553 5.5876 3.49614C5.47821 3.38674 5.41675 3.23837 5.41675 3.08366C5.41675 2.92895 5.47821 2.78058 5.5876 2.67118C5.697 2.56178 5.84537 2.50033 6.00008 2.50033C6.15479 2.50033 6.30316 2.56178 6.41256 2.67118C6.52196 2.78058 6.58341 2.92895 6.58341 3.08366C6.58341 3.23837 6.52196 3.38674 6.41256 3.49614C6.30316 3.60553 6.15479 3.66699 6.00008 3.66699Z" fill="white"/>
</svg>
