<svg width="40" height="33" viewBox="0 0 40 33" fill="none" xmlns="http://www.w3.org/2000/svg">
<path d="M27.295 25.0467C34.1692 25.0467 39.7418 19.4398 39.7418 12.5233C39.7418 5.60689 34.1692 0 27.295 0C20.4209 0 14.8483 5.60689 14.8483 12.5233C14.8483 19.4398 20.4209 25.0467 27.295 25.0467Z" fill="#F99600"/>
<path d="M13.2924 25.0467C20.1665 25.0467 25.7391 19.4398 25.7391 12.5233C25.7391 5.60689 20.1665 0 13.2924 0C6.41819 0 0.845581 5.60689 0.845581 12.5233C0.845581 19.4398 6.41819 25.0467 13.2924 25.0467Z" fill="#EC000A"/>
<path fill-rule="evenodd" clip-rule="evenodd" d="M20.2937 22.8789C17.0066 20.6248 14.8483 16.8276 14.8483 12.5232C14.8483 8.21883 17.0066 4.42164 20.2937 2.16748C23.5809 4.42164 25.7392 8.21883 25.7392 12.5232C25.7392 16.8276 23.5809 20.6248 20.2937 22.8789Z" fill="#FF5300"/>
<path d="M3.02922 31.4155V27.5307H3.60588V28.1377H3.65646C3.7374 27.9303 3.86807 27.7693 4.04849 27.6546C4.2289 27.5383 4.44557 27.4801 4.69849 27.4801C4.95479 27.4801 5.16808 27.5383 5.33838 27.6546C5.51037 27.7693 5.64442 27.9303 5.74053 28.1377H5.78099C5.88048 27.937 6.0297 27.7777 6.22866 27.6597C6.42763 27.5399 6.66622 27.4801 6.94443 27.4801C7.29177 27.4801 7.57589 27.5888 7.79677 27.8064C8.01765 28.0222 8.1281 28.3586 8.1281 28.8155V31.4155H7.5312V28.8155C7.5312 28.5289 7.4528 28.324 7.29599 28.2009C7.13918 28.0778 6.95455 28.0163 6.74209 28.0163C6.46894 28.0163 6.25733 28.0989 6.10726 28.2641C5.9572 28.4277 5.88216 28.6351 5.88216 28.8863V31.4155H5.27515V28.7548C5.27515 28.5339 5.20349 28.356 5.06017 28.2211C4.91685 28.0846 4.73222 28.0163 4.50627 28.0163C4.35115 28.0163 4.20614 28.0576 4.07125 28.1402C3.93805 28.2228 3.83013 28.3375 3.74751 28.4842C3.66658 28.6292 3.62611 28.797 3.62611 28.9875V31.4155H3.02922ZM10.3626 31.5066C10.1165 31.5066 9.89306 31.4602 9.69241 31.3675C9.49176 31.273 9.33242 31.1373 9.21439 30.9603C9.09636 30.7815 9.03735 30.5657 9.03735 30.3128C9.03735 30.0902 9.08119 29.9098 9.16886 29.7715C9.25654 29.6316 9.37373 29.522 9.52042 29.4427C9.66712 29.3635 9.82899 29.3045 10.006 29.2657C10.1848 29.2252 10.3643 29.1932 10.5448 29.1696C10.7808 29.1392 10.9722 29.1165 11.1189 29.1013C11.2673 29.0844 11.3752 29.0566 11.4426 29.0178C11.5118 28.9791 11.5463 28.9116 11.5463 28.8155V28.7953C11.5463 28.5457 11.478 28.3518 11.3415 28.2136C11.2066 28.0753 11.0017 28.0062 10.7269 28.0062C10.4419 28.0062 10.2185 28.0685 10.0566 28.1933C9.89475 28.3181 9.78093 28.4513 9.71517 28.5929L9.14863 28.3906C9.2498 28.1545 9.38469 27.9707 9.5533 27.8392C9.7236 27.706 9.90908 27.6133 10.1097 27.561C10.3121 27.5071 10.511 27.4801 10.7066 27.4801C10.8314 27.4801 10.9747 27.4953 11.1366 27.5256C11.3001 27.5543 11.4578 27.6141 11.6095 27.7052C11.763 27.7962 11.8903 27.9337 11.9915 28.1174C12.0926 28.3012 12.1432 28.5474 12.1432 28.856V31.4155H11.5463V30.8895H11.516C11.4755 30.9738 11.4081 31.064 11.3136 31.1601C11.2192 31.2562 11.0936 31.338 10.9368 31.4054C10.78 31.4729 10.5886 31.5066 10.3626 31.5066ZM10.4537 30.9704C10.6898 30.9704 10.8887 30.924 11.0506 30.8313C11.2141 30.7385 11.3372 30.6188 11.4199 30.4721C11.5042 30.3254 11.5463 30.1712 11.5463 30.0093V29.463C11.521 29.4933 11.4654 29.5212 11.3794 29.5464C11.2951 29.5701 11.1973 29.5911 11.086 29.6097C10.9764 29.6265 10.8693 29.6417 10.7648 29.6552C10.6619 29.667 10.5785 29.6771 10.5144 29.6856C10.3593 29.7058 10.2143 29.7387 10.0794 29.7842C9.94617 29.828 9.83826 29.8946 9.75564 29.984C9.67471 30.0717 9.63424 30.1914 9.63424 30.3431C9.63424 30.5505 9.71096 30.7073 9.8644 30.8136C10.0195 30.9181 10.216 30.9704 10.4537 30.9704ZM15.9844 28.4007L15.4482 28.5525C15.4145 28.4631 15.3648 28.3763 15.299 28.292C15.235 28.206 15.1473 28.1351 15.036 28.0795C14.9247 28.0239 14.7822 27.996 14.6086 27.996C14.3708 27.996 14.1727 28.0508 14.0142 28.1604C13.8574 28.2684 13.779 28.4058 13.779 28.5727C13.779 28.7211 13.8329 28.8383 13.9408 28.9243C14.0488 29.0103 14.2174 29.0819 14.4467 29.1392L15.0233 29.2809C15.3707 29.3652 15.6295 29.4942 15.7998 29.6678C15.9701 29.8398 16.0553 30.0616 16.0553 30.333C16.0553 30.5556 15.9912 30.7546 15.863 30.9299C15.7366 31.1053 15.5595 31.2435 15.3319 31.3447C15.1043 31.4459 14.8396 31.4965 14.5377 31.4965C14.1415 31.4965 13.8135 31.4105 13.5539 31.2385C13.2942 31.0665 13.1298 30.8153 13.0607 30.4848L13.6272 30.3431C13.6812 30.5522 13.7832 30.709 13.9333 30.8136C14.085 30.9181 14.2831 30.9704 14.5276 30.9704C14.8058 30.9704 15.0267 30.9114 15.1903 30.7933C15.3555 30.6736 15.4381 30.5303 15.4381 30.3634C15.4381 30.2285 15.3909 30.1155 15.2965 30.0245C15.2021 29.9317 15.0571 29.8626 14.8615 29.8171L14.214 29.6653C13.8582 29.581 13.5969 29.4503 13.4299 29.2733C13.2647 29.0946 13.1821 28.8711 13.1821 28.6031C13.1821 28.3839 13.2436 28.1899 13.3667 28.0213C13.4915 27.8527 13.6609 27.7204 13.8751 27.6242C14.0909 27.5281 14.3354 27.4801 14.6086 27.4801C14.993 27.4801 15.2948 27.5644 15.514 27.733C15.7349 27.9016 15.8917 28.1242 15.9844 28.4007ZM18.6433 27.5307V28.0365H16.63V27.5307H18.6433ZM17.2168 26.5999H17.8137V30.3027C17.8137 30.4713 17.8381 30.5978 17.887 30.6821C17.9376 30.7647 18.0017 30.8203 18.0793 30.849C18.1585 30.876 18.242 30.8895 18.3296 30.8895C18.3954 30.8895 18.4494 30.8861 18.4915 30.8793C18.5337 30.8709 18.5674 30.8642 18.5927 30.8591L18.7141 31.3953C18.6736 31.4105 18.6171 31.4256 18.5446 31.4408C18.4721 31.4577 18.3802 31.4661 18.2689 31.4661C18.1003 31.4661 17.9351 31.4299 17.7732 31.3574C17.613 31.2849 17.4798 31.1744 17.3736 31.026C17.2691 30.8776 17.2168 30.6905 17.2168 30.4645V26.5999ZM21.1282 31.4965C20.7539 31.4965 20.431 31.4138 20.1595 31.2486C19.8897 31.0817 19.6815 30.849 19.5348 30.5505C19.3898 30.2504 19.3173 29.9014 19.3173 29.5034C19.3173 29.1055 19.3898 28.7548 19.5348 28.4513C19.6815 28.1461 19.8855 27.9084 20.1469 27.7381C20.4099 27.5661 20.7168 27.4801 21.0675 27.4801C21.2698 27.4801 21.4697 27.5138 21.6669 27.5813C21.8642 27.6487 22.0438 27.7583 22.2057 27.91C22.3675 28.0601 22.4965 28.2591 22.5926 28.5069C22.6887 28.7548 22.7368 29.06 22.7368 29.4225V29.6754H19.7422V29.1595H22.1298C22.1298 28.9403 22.0859 28.7447 21.9983 28.5727C21.9123 28.4007 21.7892 28.265 21.629 28.1655C21.4705 28.066 21.2833 28.0163 21.0675 28.0163C20.8298 28.0163 20.6241 28.0753 20.4504 28.1933C20.2784 28.3097 20.146 28.4614 20.0533 28.6486C19.9606 28.8357 19.9142 29.0364 19.9142 29.2505V29.5945C19.9142 29.8879 19.9648 30.1366 20.0659 30.3406C20.1688 30.543 20.3113 30.6972 20.4934 30.8035C20.6755 30.908 20.8871 30.9603 21.1282 30.9603C21.285 30.9603 21.4267 30.9384 21.5531 30.8945C21.6813 30.849 21.7917 30.7815 21.8844 30.6922C21.9772 30.6011 22.0488 30.4882 22.0994 30.3533L22.6761 30.5151C22.6154 30.7107 22.5134 30.8827 22.3701 31.0311C22.2267 31.1778 22.0497 31.2924 21.8389 31.3751C21.6282 31.456 21.3913 31.4965 21.1282 31.4965ZM23.6448 31.4155V27.5307H24.2214V28.1174H24.2619C24.3327 27.9252 24.4609 27.7693 24.6463 27.6495C24.8318 27.5298 25.0409 27.47 25.2736 27.47C25.3174 27.47 25.3722 27.4708 25.438 27.4725C25.5037 27.4742 25.5535 27.4767 25.5872 27.4801V28.0871C25.567 28.082 25.5206 28.0744 25.4481 28.0643C25.3773 28.0525 25.3022 28.0466 25.223 28.0466C25.0341 28.0466 24.8655 28.0862 24.7172 28.1655C24.5705 28.2431 24.4541 28.351 24.3681 28.4892C24.2838 28.6258 24.2417 28.7818 24.2417 28.9571V31.4155H23.6448ZM27.7547 31.4965C27.3905 31.4965 27.0769 31.4105 26.8139 31.2385C26.5508 31.0665 26.3485 30.8296 26.2069 30.5278C26.0652 30.226 25.9944 29.8811 25.9944 29.4933C25.9944 29.0988 26.0669 28.7506 26.2119 28.4488C26.3586 28.1453 26.5626 27.9084 26.824 27.7381C27.087 27.5661 27.3939 27.4801 27.7446 27.4801C28.0178 27.4801 28.2639 27.5307 28.4831 27.6318C28.7023 27.733 28.8819 27.8746 29.0219 28.0567C29.1618 28.2388 29.2486 28.4513 29.2824 28.6941H28.6855C28.64 28.5171 28.5388 28.3602 28.382 28.2237C28.2268 28.0854 28.0178 28.0163 27.7547 28.0163C27.522 28.0163 27.318 28.077 27.1427 28.1984C26.969 28.3181 26.8333 28.4876 26.7355 28.7067C26.6394 28.9243 26.5913 29.1797 26.5913 29.4731C26.5913 29.7732 26.6385 30.0346 26.7329 30.2572C26.829 30.4797 26.9639 30.6526 27.1376 30.7756C27.313 30.8987 27.5187 30.9603 27.7547 30.9603C27.9099 30.9603 28.0506 30.9333 28.1771 30.8793C28.3036 30.8254 28.4106 30.7478 28.4983 30.6466C28.586 30.5455 28.6484 30.4241 28.6855 30.2824H29.2824C29.2486 30.5118 29.1652 30.7183 29.032 30.9021C28.9005 31.0842 28.7259 31.2292 28.5084 31.3371C28.2926 31.4433 28.0414 31.4965 27.7547 31.4965ZM31.2981 31.5066C31.052 31.5066 30.8286 31.4602 30.6279 31.3675C30.4273 31.273 30.2679 31.1373 30.1499 30.9603C30.0319 30.7815 29.9728 30.5657 29.9728 30.3128C29.9728 30.0902 30.0167 29.9098 30.1044 29.7715C30.192 29.6316 30.3092 29.522 30.4559 29.4427C30.6026 29.3635 30.7645 29.3045 30.9415 29.2657C31.1203 29.2252 31.2998 29.1932 31.4803 29.1696C31.7163 29.1392 31.9077 29.1165 32.0544 29.1013C32.2028 29.0844 32.3107 29.0566 32.3781 29.0178C32.4473 28.9791 32.4818 28.9116 32.4818 28.8155V28.7953C32.4818 28.5457 32.4135 28.3518 32.277 28.2136C32.1421 28.0753 31.9372 28.0062 31.6624 28.0062C31.3774 28.0062 31.154 28.0685 30.9921 28.1933C30.8302 28.3181 30.7164 28.4513 30.6507 28.5929L30.0841 28.3906C30.1853 28.1545 30.3202 27.9707 30.4888 27.8392C30.6591 27.706 30.8446 27.6133 31.0452 27.561C31.2476 27.5071 31.4465 27.4801 31.6421 27.4801C31.7669 27.4801 31.9102 27.4953 32.0721 27.5256C32.2356 27.5543 32.3933 27.6141 32.545 27.7052C32.6985 27.7962 32.8258 27.9337 32.927 28.1174C33.0281 28.3012 33.0787 28.5474 33.0787 28.856V31.4155H32.4818V30.8895H32.4515C32.411 30.9738 32.3436 31.064 32.2491 31.1601C32.1547 31.2562 32.0291 31.338 31.8723 31.4054C31.7155 31.4729 31.5241 31.5066 31.2981 31.5066ZM31.3892 30.9704C31.6253 30.9704 31.8242 30.924 31.9861 30.8313C32.1496 30.7385 32.2727 30.6188 32.3554 30.4721C32.4397 30.3254 32.4818 30.1712 32.4818 30.0093V29.463C32.4565 29.4933 32.4009 29.5212 32.3149 29.5464C32.2306 29.5701 32.1328 29.5911 32.0215 29.6097C31.9119 29.6265 31.8048 29.6417 31.7003 29.6552C31.5974 29.667 31.514 29.6771 31.4499 29.6856C31.2948 29.7058 31.1498 29.7387 31.0149 29.7842C30.8817 29.828 30.7738 29.8946 30.6911 29.984C30.6102 30.0717 30.5697 30.1914 30.5697 30.3431C30.5697 30.5505 30.6465 30.7073 30.7999 30.8136C30.955 30.9181 31.1515 30.9704 31.3892 30.9704ZM34.1682 31.4155V27.5307H34.7448V28.1174H34.7853C34.8561 27.9252 34.9843 27.7693 35.1697 27.6495C35.3552 27.5298 35.5643 27.47 35.797 27.47C35.8408 27.47 35.8956 27.4708 35.9614 27.4725C36.0271 27.4742 36.0769 27.4767 36.1106 27.4801V28.0871C36.0904 28.082 36.044 28.0744 35.9715 28.0643C35.9007 28.0525 35.8256 28.0466 35.7464 28.0466C35.5575 28.0466 35.3889 28.0862 35.2405 28.1655C35.0939 28.2431 34.9775 28.351 34.8915 28.4892C34.8072 28.6258 34.7651 28.7818 34.7651 28.9571V31.4155H34.1682ZM38.1668 31.4965C37.8431 31.4965 37.5573 31.4147 37.3094 31.2511C37.0616 31.0859 36.8677 30.8532 36.7277 30.5531C36.5878 30.2512 36.5178 29.8946 36.5178 29.4832C36.5178 29.0752 36.5878 28.7211 36.7277 28.4209C36.8677 28.1208 37.0624 27.889 37.312 27.7254C37.5615 27.5619 37.8498 27.4801 38.177 27.4801C38.4299 27.4801 38.6297 27.5222 38.7764 27.6065C38.9248 27.6892 39.0377 27.7836 39.1153 27.8898C39.1945 27.9944 39.2561 28.0803 39.2999 28.1478H39.3505V26.2357H39.9474V31.4155H39.3707V30.8186H39.2999C39.2561 30.8895 39.1937 30.9788 39.1128 31.0867C39.0318 31.193 38.9163 31.2882 38.7663 31.3725C38.6162 31.4552 38.4164 31.4965 38.1668 31.4965ZM38.2478 30.9603C38.4872 30.9603 38.6895 30.8979 38.8548 30.7731C39.02 30.6466 39.1456 30.4721 39.2316 30.2496C39.3176 30.0253 39.3606 29.7665 39.3606 29.4731C39.3606 29.1831 39.3185 28.9293 39.2342 28.7118C39.1499 28.4926 39.0251 28.3223 38.8598 28.2009C38.6946 28.0778 38.4906 28.0163 38.2478 28.0163C37.9948 28.0163 37.7841 28.0812 37.6155 28.211C37.4485 28.3392 37.3229 28.5137 37.2386 28.7346C37.156 28.9538 37.1147 29.1999 37.1147 29.4731C37.1147 29.7496 37.1568 30.0009 37.2411 30.2268C37.3271 30.4511 37.4536 30.6298 37.6205 30.763C37.7891 30.8945 37.9982 30.9603 38.2478 30.9603Z" fill="white"/>
</svg>
