<svg width="21" height="21" viewBox="0 0 21 21" fill="none" xmlns="http://www.w3.org/2000/svg">
<path d="M18.1342 3.28125H2.86584C2.28009 3.28212 1.71857 3.51519 1.30438 3.92938C0.890192 4.34357 0.657118 4.90509 0.65625 5.49084V15.5092C0.657118 16.0949 0.890192 16.6564 1.30438 17.0706C1.71857 17.4848 2.28009 17.7179 2.86584 17.7188H18.1342C18.7199 17.7179 19.2814 17.4848 19.6956 17.0706C20.1098 16.6564 20.3429 16.0949 20.3438 15.5092V5.49084C20.3429 4.90509 20.1098 4.34357 19.6956 3.92938C19.2814 3.51519 18.7199 3.28212 18.1342 3.28125ZM2.86584 4.59375H18.1342C18.372 4.59392 18.6001 4.68849 18.7683 4.85669C18.9365 5.02489 19.0311 5.25297 19.0312 5.49084V7.21875H1.96875V5.49084C1.96892 5.25297 2.06349 5.02489 2.23169 4.85669C2.39989 4.68849 2.62797 4.59392 2.86584 4.59375ZM18.1342 16.4062H2.86584C2.62797 16.4061 2.39989 16.3115 2.23169 16.1433C2.06349 15.9751 1.96892 15.747 1.96875 15.5092V8.53125H19.0312V15.5092C19.0311 15.747 18.9365 15.9751 18.7683 16.1433C18.6001 16.3115 18.372 16.4061 18.1342 16.4062Z" fill="#0091EC"/>
<path d="M6.89062 11.8125C7.06467 11.8125 7.23159 11.7434 7.35466 11.6203C7.47773 11.4972 7.54688 11.3303 7.54688 11.1562C7.54688 10.9822 7.47773 10.8153 7.35466 10.6922C7.23159 10.5691 7.06467 10.5 6.89062 10.5H4.92188C4.74783 10.5 4.58091 10.5691 4.45784 10.6922C4.33477 10.8153 4.26562 10.9822 4.26562 11.1562V13.7812C4.26562 13.9553 4.33477 14.1222 4.45784 14.2453C4.58091 14.3684 4.74783 14.4375 4.92188 14.4375H6.89062C7.06467 14.4375 7.23159 14.3684 7.35466 14.2453C7.47773 14.1222 7.54688 13.9553 7.54688 13.7812C7.54688 13.6072 7.47773 13.4403 7.35466 13.3172C7.23159 13.1941 7.06467 13.125 6.89062 13.125H5.57812V11.8125H6.89062Z" fill="#0091EC"/>
<path d="M16.3714 10.5689C16.2155 10.4921 16.0355 10.4799 15.8706 10.535C15.7058 10.59 15.5692 10.7079 15.4907 10.8629L14.7655 12.3139L14.0437 10.8629C13.9659 10.7072 13.8294 10.5887 13.6642 10.5335C13.4991 10.4784 13.3188 10.4911 13.163 10.5689C13.0072 10.6467 12.8887 10.7832 12.8336 10.9484C12.7785 11.1136 12.7912 11.2939 12.869 11.4496L14.1815 14.0746C14.2359 14.1838 14.3197 14.2757 14.4235 14.3399C14.5272 14.4041 14.6468 14.4381 14.7688 14.4381C14.8908 14.4381 15.0104 14.4041 15.1142 14.3399C15.218 14.2757 15.3017 14.1838 15.3562 14.0746L16.6687 11.4496C16.7452 11.2933 16.757 11.113 16.7013 10.9481C16.6456 10.7832 16.527 10.6469 16.3714 10.5689Z" fill="#0091EC"/>
<path d="M11.7776 10.5689C11.6217 10.4921 11.4418 10.4799 11.2769 10.535C11.112 10.59 10.9755 10.7079 10.897 10.8629L10.1718 12.3139L9.44992 10.8629C9.37212 10.7072 9.23563 10.5887 9.07047 10.5335C8.90531 10.4784 8.72501 10.4911 8.56923 10.5689C8.41346 10.6467 8.29497 10.7832 8.23984 10.9484C8.1847 11.1136 8.19744 11.2939 8.27523 11.4496L9.58773 14.0746C9.64216 14.1838 9.72596 14.2757 9.82971 14.3399C9.93346 14.4041 10.0531 14.4381 10.1751 14.4381C10.2971 14.4381 10.4167 14.4041 10.5204 14.3399C10.6242 14.2757 10.708 14.1838 10.7624 14.0746L12.0749 11.4496C12.1515 11.2933 12.1632 11.113 12.1075 10.9481C12.0519 10.7832 11.9333 10.6469 11.7776 10.5689Z" fill="#0091EC"/>
</svg>
