<svg width="8" height="8" viewBox="0 0 8 8" fill="none" xmlns="http://www.w3.org/2000/svg">
<g clip-path="url(#clip0_343_1661)">
<mask id="path-1-inside-1_343_1661" fill="white">
<path d="M7.33329 3.99984C7.33329 5.99984 5.86996 7.33317 4.06463 7.33317C2.59729 7.33317 1.41329 6.55484 0.999959 5.33317M0.666626 3.99984C0.666626 1.99984 2.12996 0.666504 3.93529 0.666504C5.40296 0.666504 6.58663 1.44484 6.99996 2.6665"/>
</mask>
<path d="M8.13329 3.99984C8.13329 3.55801 7.77512 3.19984 7.33329 3.19984C6.89146 3.19984 6.53329 3.55801 6.53329 3.99984H8.13329ZM1.75776 5.07678C1.61616 4.65826 1.16209 4.43377 0.743568 4.57537C0.325046 4.71697 0.100556 5.17104 0.242158 5.58956L1.75776 5.07678ZM-0.133374 3.99984C-0.133374 4.44166 0.224798 4.79984 0.666626 4.79984C1.10845 4.79984 1.46663 4.44166 1.46663 3.99984H-0.133374ZM6.24216 2.9229C6.38376 3.34142 6.83783 3.56591 7.25635 3.42431C7.67487 3.2827 7.89936 2.82863 7.75776 2.41011L6.24216 2.9229ZM6.53329 3.99984C6.53329 5.54756 5.43865 6.53317 4.06463 6.53317V8.13317C6.30126 8.13317 8.13329 6.45211 8.13329 3.99984H6.53329ZM4.06463 6.53317C2.88199 6.53317 2.04356 5.9215 1.75776 5.07678L0.242158 5.58956C0.783025 7.18817 2.31259 8.13317 4.06463 8.13317V6.53317ZM1.46663 3.99984C1.46663 2.45211 2.56126 1.4665 3.93529 1.4665V-0.133496C1.69865 -0.133496 -0.133374 1.54756 -0.133374 3.99984H1.46663ZM3.93529 1.4665C5.11821 1.4665 5.95634 2.07813 6.24216 2.9229L7.75776 2.41011C7.21691 0.811543 5.68771 -0.133496 3.93529 -0.133496V1.4665Z" fill="#E1FFD6" mask="url(#path-1-inside-1_343_1661)"/>
<mask id="path-3-inside-2_343_1661" fill="white">
<path d="M2.33317 5.66683L0.999837 5.3335L0.666504 6.66683M5.6665 2.3335L6.99984 2.66683L7.33317 1.3335"/>
</mask>
<path d="M2.13914 6.44294C2.56778 6.5501 3.00213 6.28949 3.10928 5.86086C3.21644 5.43222 2.95583 4.99787 2.5272 4.89072L2.13914 6.44294ZM0.999837 5.3335L1.19387 4.55738C0.988028 4.50592 0.770178 4.53834 0.588241 4.6475C0.406304 4.75666 0.275183 4.93363 0.223723 5.13947L0.999837 5.3335ZM-0.10961 6.4728C-0.216769 6.90144 0.0438395 7.33578 0.472475 7.44294C0.901111 7.5501 1.33546 7.28949 1.44262 6.86086L-0.10961 6.4728ZM5.86053 1.55738C5.4319 1.45022 4.99755 1.71083 4.89039 2.13947C4.78323 2.5681 5.04384 3.00245 5.47248 3.10961L5.86053 1.55738ZM6.99984 2.66683L6.80581 3.44294C7.01165 3.4944 7.2295 3.46199 7.41143 3.35282C7.59337 3.24366 7.72449 3.0667 7.77595 2.86086L6.99984 2.66683ZM8.10928 1.52752C8.21644 1.09889 7.95583 0.664541 7.5272 0.557382C7.09856 0.450223 6.66422 0.710832 6.55706 1.13947L8.10928 1.52752ZM2.5272 4.89072L1.19387 4.55738L0.805809 6.10961L2.13914 6.44294L2.5272 4.89072ZM0.223723 5.13947L-0.10961 6.4728L1.44262 6.86086L1.77595 5.52752L0.223723 5.13947ZM5.47248 3.10961L6.80581 3.44294L7.19387 1.89072L5.86053 1.55738L5.47248 3.10961ZM7.77595 2.86086L8.10928 1.52752L6.55706 1.13947L6.22372 2.4728L7.77595 2.86086Z" fill="#E1FFD6" mask="url(#path-3-inside-2_343_1661)"/>
</g>
<g clip-path="url(#clip1_343_1661)">
<mask id="path-5-outside-3_343_1661" maskUnits="userSpaceOnUse" x="-0.333374" y="-0.333496" width="9" height="9" fill="black">
<rect fill="white" x="-0.333374" y="-0.333496" width="9" height="9"/>
<path d="M7.33329 3.99984C7.33329 5.99984 5.86996 7.33317 4.06463 7.33317C2.59729 7.33317 1.41329 6.55484 0.999959 5.33317M0.666626 3.99984C0.666626 1.99984 2.12996 0.666504 3.93529 0.666504C5.40296 0.666504 6.58663 1.44484 6.99996 2.6665"/>
</mask>
<path d="M8.13329 3.99984C8.13329 3.55801 7.77512 3.19984 7.33329 3.19984C6.89146 3.19984 6.53329 3.55801 6.53329 3.99984H8.13329ZM1.75776 5.07678C1.61616 4.65826 1.16209 4.43377 0.743568 4.57537C0.325046 4.71697 0.100556 5.17104 0.242158 5.58956L1.75776 5.07678ZM-0.133374 3.99984C-0.133374 4.44166 0.224798 4.79984 0.666626 4.79984C1.10845 4.79984 1.46663 4.44166 1.46663 3.99984H-0.133374ZM6.24216 2.9229C6.38376 3.34142 6.83783 3.56591 7.25635 3.42431C7.67487 3.2827 7.89936 2.82863 7.75776 2.41011L6.24216 2.9229ZM6.53329 3.99984C6.53329 5.54756 5.43865 6.53317 4.06463 6.53317V8.13317C6.30126 8.13317 8.13329 6.45211 8.13329 3.99984H6.53329ZM4.06463 6.53317C2.88199 6.53317 2.04356 5.9215 1.75776 5.07678L0.242158 5.58956C0.783025 7.18817 2.31259 8.13317 4.06463 8.13317V6.53317ZM1.46663 3.99984C1.46663 2.45211 2.56126 1.4665 3.93529 1.4665V-0.133496C1.69865 -0.133496 -0.133374 1.54756 -0.133374 3.99984H1.46663ZM3.93529 1.4665C5.11821 1.4665 5.95634 2.07813 6.24216 2.9229L7.75776 2.41011C7.21691 0.811543 5.68771 -0.133496 3.93529 -0.133496V1.4665Z" fill="#E1FFD6" mask="url(#path-5-outside-3_343_1661)"/>
<mask id="path-7-outside-4_343_1661" maskUnits="userSpaceOnUse" x="-0.333496" y="0.333496" width="9" height="8" fill="black">
<rect fill="white" x="-0.333496" y="0.333496" width="9" height="8"/>
<path d="M2.33317 5.66683L0.999837 5.3335L0.666504 6.66683M5.6665 2.3335L6.99984 2.66683L7.33317 1.3335"/>
</mask>
<path d="M2.13914 6.44294C2.56778 6.5501 3.00213 6.28949 3.10928 5.86086C3.21644 5.43222 2.95583 4.99787 2.5272 4.89072L2.13914 6.44294ZM0.999837 5.3335L1.19387 4.55738C0.988028 4.50592 0.770178 4.53834 0.588241 4.6475C0.406304 4.75666 0.275183 4.93363 0.223723 5.13947L0.999837 5.3335ZM-0.10961 6.4728C-0.216769 6.90144 0.0438395 7.33578 0.472475 7.44294C0.901111 7.5501 1.33546 7.28949 1.44262 6.86086L-0.10961 6.4728ZM5.86053 1.55738C5.4319 1.45022 4.99755 1.71083 4.89039 2.13947C4.78323 2.5681 5.04384 3.00245 5.47248 3.10961L5.86053 1.55738ZM6.99984 2.66683L6.80581 3.44294C7.01165 3.4944 7.2295 3.46199 7.41143 3.35282C7.59337 3.24366 7.72449 3.0667 7.77595 2.86086L6.99984 2.66683ZM8.10928 1.52752C8.21644 1.09889 7.95583 0.664541 7.5272 0.557382C7.09856 0.450223 6.66422 0.710832 6.55706 1.13947L8.10928 1.52752ZM2.5272 4.89072L1.19387 4.55738L0.805809 6.10961L2.13914 6.44294L2.5272 4.89072ZM0.223723 5.13947L-0.10961 6.4728L1.44262 6.86086L1.77595 5.52752L0.223723 5.13947ZM5.47248 3.10961L6.80581 3.44294L7.19387 1.89072L5.86053 1.55738L5.47248 3.10961ZM7.77595 2.86086L8.10928 1.52752L6.55706 1.13947L6.22372 2.4728L7.77595 2.86086Z" fill="#E1FFD6" mask="url(#path-7-outside-4_343_1661)"/>
</g>
<g clip-path="url(#clip2_343_1661)">
<path d="M7.33329 3.99984C7.33329 5.99984 5.86996 7.33317 4.06463 7.33317C2.59729 7.33317 1.41329 6.55484 0.999959 5.33317M0.666626 3.99984C0.666626 1.99984 2.12996 0.666504 3.93529 0.666504C5.40296 0.666504 6.58663 1.44484 6.99996 2.6665" stroke="black" stroke-width="0.666667" stroke-linecap="round" stroke-linejoin="round"/>
<path d="M2.33317 5.66683L0.999837 5.3335L0.666504 6.66683M5.6665 2.3335L6.99984 2.66683L7.33317 1.3335" stroke="black" stroke-width="0.666667" stroke-linecap="round" stroke-linejoin="round"/>
</g>
<defs>
<clipPath id="clip0_343_1661">
<rect width="8" height="8" fill="white"/>
</clipPath>
<clipPath id="clip1_343_1661">
<rect width="8" height="8" fill="white"/>
</clipPath>
<clipPath id="clip2_343_1661">
<rect width="8" height="8" fill="white"/>
</clipPath>
</defs>
</svg>
