<svg fill="none" height="25" viewBox="0 0 23 25" width="23" xmlns="http://www.w3.org/2000/svg">
    <path
        d="M13.4462 22.625C13.2487 22.9662 12.9649 23.2496 12.6233 23.4465C12.2817 23.6435 11.8943 23.7471 11.5 23.7471C11.1057 23.7471 10.7183 23.6435 10.3767 23.4465C10.0351 23.2496 9.75131 22.9662 9.55375 22.625M18.25 8.45C18.25 6.54087 17.539 4.70938 16.2734 3.35938C15.0066 2.00937 13.2888 1.25 11.5 1.25C9.71013 1.25 7.99338 2.00825 6.72662 3.35938C5.461 4.70938 4.75 6.54087 4.75 8.45C4.75 16.8504 1.375 19.25 1.375 19.25H21.625C21.625 19.25 18.25 16.8504 18.25 8.45Z"
        stroke="black" stroke-linecap="round" stroke-linejoin="round" stroke-width="1.6875" />
</svg>
