<svg fill="none" height="35" viewBox="0 0 35 35" width="35" xmlns="http://www.w3.org/2000/svg">
    <path
        d="M24.0625 30.825H24.2625V30.625V24.2625H26.05V30.625C26.05 31.1521 25.8406 31.6576 25.4679 32.0304C25.0951 32.4031 24.5896 32.6125 24.0625 32.6125H6.5625C6.03538 32.6125 5.52985 32.4031 5.15713 32.0304C4.7844 31.6576 4.575 31.1521 4.575 30.625V4.375C4.575 3.84788 4.7844 3.34235 5.15713 2.96963C5.52985 2.5969 6.03538 2.3875 6.5625 2.3875H17.3V4.175H6.5625H6.3625V4.375V30.625V30.825H6.5625H24.0625Z"
        fill="#0A0A0A" stroke="#CFFFBC" stroke-width="0.4" />
    <path
        d="M16.9031 23.8626H11.1375V18.086L26.39 2.83351C26.3902 2.83327 26.3905 2.83304 26.3907 2.8328C26.6804 2.54924 27.0696 2.39043 27.475 2.39043C27.8804 2.39043 28.2697 2.54926 28.5593 2.83285C28.5596 2.83307 28.5598 2.83329 28.56 2.83351L31.8265 6.10005H31.8223L32.1556 6.44005C32.4396 6.72979 32.5987 7.11934 32.5987 7.52505C32.5987 7.93041 32.4399 8.31963 32.1564 8.60929C32.1561 8.60954 32.1559 8.6098 32.1556 8.61005L16.9031 23.8626ZM16.0781 22.0751H16.1609L16.2195 22.0166L26.5554 11.6916L26.697 11.5501L26.5555 11.4086L23.5914 8.44457L23.4499 8.30307L23.3085 8.44465L12.9835 18.7806L12.925 18.8391V18.9219V21.8751V22.0751H13.125H16.0781ZM27.8148 10.1493L27.9563 10.2907L28.0977 10.1493L30.5805 7.66648L30.7219 7.52505L30.5805 7.38363L27.6164 4.41957L27.475 4.27815L27.3336 4.41957L24.8508 6.90238L24.7093 7.0438L24.8508 7.18523L27.8148 10.1493Z"
        fill="#0A0A0A" stroke="#CFFFBC" stroke-width="0.4" />
</svg>
