<svg width="32" height="31" viewBox="0 0 32 31" fill="none" xmlns="http://www.w3.org/2000/svg">
<g clip-path="url(#clip0_341_1507)">
<path d="M9.70639 22.9627L11.3827 21.3614L11.3852 21.3591L11.3851 21.359L24.3381 8.40605C24.5783 8.16587 24.5898 7.78265 24.3372 7.53009C24.0846 7.27753 23.7014 7.28898 23.4612 7.52917L10.5082 20.4821L10.5053 20.4851L10.5054 20.4851L8.91254 22.1679L8.97071 18.4481L8.97076 18.4454L8.97073 18.4454L8.95234 11.471C8.96256 11.2847 8.87278 11.1332 8.75942 11.0198C8.51565 10.7761 8.1237 10.7787 7.87478 11.0276C7.81214 11.0902 7.75873 11.1673 7.72552 11.2731C7.69354 11.375 7.68265 11.496 7.69184 11.6451L7.74315 23.4845C7.74315 23.4846 7.74315 23.4847 7.74315 23.4847L7.74316 23.485L7.89315 23.4843C7.89337 23.624 7.93717 23.7377 8.03338 23.8339C8.1296 23.9301 8.24324 23.9739 8.38298 23.9741L9.70639 22.9627ZM9.70639 22.9627L13.4188 22.8965L13.4188 22.8965L13.4219 22.8965L20.4006 22.915C20.4007 22.915 20.4007 22.915 20.4007 22.915C20.5699 22.9151 20.7375 22.9979 20.8562 23.1166C21.093 23.3534 21.0867 23.7454 20.8397 23.9925C20.7132 24.1189 20.5604 24.176 20.3841 24.1757L20.3837 24.1757L8.38274 24.1241C8.38269 24.1241 8.38264 24.1241 8.38258 24.1241L9.70639 22.9627Z" fill="white" stroke="white" stroke-width="0.3"/>
</g>
<defs>
<clipPath id="clip0_341_1507">
<rect width="24" height="19" fill="white" transform="matrix(-0.707107 0.707107 0.707107 0.707107 17.7678 0.296875)"/>
</clipPath>
</defs>
</svg>
