<svg fill="none" height="35" viewBox="0 0 35 35" width="35" xmlns="http://www.w3.org/2000/svg">
    <path
        d="M29.2277 4.62847L29.2283 4.62826C29.388 4.56963 29.5612 4.55782 29.7274 4.59424C29.8929 4.63047 30.0445 4.71294 30.1649 4.83203C30.281 4.95427 30.3601 5.10685 30.3932 5.27218C30.4264 5.43833 30.4117 5.61051 30.3508 5.76864L30.3508 5.76863L30.3495 5.77216L21.5995 29.8347L21.5994 29.8351C21.538 30.005 21.4266 30.1523 21.2798 30.2576C21.1343 30.3619 20.9609 30.4201 20.7821 30.4248C20.6094 30.4188 20.4422 30.3629 20.3006 30.2638C20.1577 30.1637 20.0472 30.024 19.9827 29.8619L19.9825 29.8615L15.7825 19.3615L15.7507 19.282L15.6711 19.2501L5.17112 15.0501L5.17114 15.0501L5.16777 15.0488C4.9982 14.9845 4.85221 14.8701 4.74919 14.7209C4.64617 14.5716 4.59099 14.3945 4.59099 14.2132C4.59099 14.0318 4.64617 13.8547 4.74919 13.7055C4.85195 13.5566 4.99748 13.4424 5.16651 13.378C5.16693 13.3778 5.16735 13.3777 5.16777 13.3775L29.2277 4.62847ZM20.5954 26.5427L20.7904 27.032L20.9693 26.5366L27.8928 7.36312L28.0375 6.96238L27.6367 7.10709L8.46329 14.0305L7.97301 14.2076L8.45589 14.4039L16.0684 17.4992L16.1913 17.5492L16.2851 17.4554L21.4265 12.314L22.6859 13.5733L17.5882 18.671L17.4951 18.7641L17.5439 18.8864L20.5954 26.5427Z"
        fill="#0A0A0A" stroke="#CFFFBC" stroke-width="0.4" />
</svg>
