<svg width="19" height="19" viewBox="0 0 19 19" fill="none" xmlns="http://www.w3.org/2000/svg">
<path d="M12.7812 11.8244C12.4158 11.8245 12.0545 11.9019 11.7211 12.0515C11.3876 12.2011 11.0897 12.4196 10.8467 12.6926L7.50389 10.5392C7.64814 10.2118 7.72264 9.85796 7.72264 9.50018C7.72264 9.14239 7.64814 8.78853 7.50389 8.46111L10.8467 6.30779C11.2519 6.76004 11.8028 7.05602 12.4036 7.14429C13.0044 7.23256 13.6172 7.10755 14.1354 6.79098C14.6536 6.47441 15.0446 5.98628 15.2403 5.41142C15.436 4.83657 15.4241 4.21131 15.2067 3.64429C14.9893 3.07727 14.5802 2.60434 14.0503 2.30767C13.5204 2.01099 12.9034 1.90933 12.3064 2.02034C11.7093 2.13135 11.1701 2.44803 10.7823 2.91533C10.3945 3.38264 10.1826 3.97104 10.1836 4.5783C10.1813 4.93632 10.2559 5.29065 10.4023 5.61736L7.05955 7.77069C6.70911 7.37795 6.24764 7.10094 5.73624 6.97635C5.22485 6.85175 4.68768 6.88545 4.19586 7.07297C3.70405 7.2605 3.28081 7.593 2.98219 8.02645C2.68358 8.45989 2.52368 8.97383 2.52368 9.50018C2.52368 10.0265 2.68358 10.5405 2.98219 10.9739C3.28081 11.4074 3.70405 11.7399 4.19586 11.9274C4.68768 12.1149 5.22485 12.1486 5.73624 12.024C6.24764 11.8994 6.70911 11.6224 7.05955 11.2297L10.4023 13.383C10.2559 13.7097 10.1813 14.064 10.1836 14.4221C10.1836 14.9358 10.3359 15.4381 10.6214 15.8652C10.9068 16.2924 11.3125 16.6254 11.7872 16.822C12.2618 17.0186 12.7841 17.07 13.288 16.9698C13.7919 16.8696 14.2548 16.6222 14.6181 16.2589C14.9813 15.8956 15.2287 15.4327 15.329 14.9288C15.4292 14.4249 15.3778 13.9026 15.1812 13.428C14.9845 12.9533 14.6516 12.5476 14.2244 12.2622C13.7972 11.9767 13.295 11.8244 12.7812 11.8244ZM12.7812 2.80096C13.1328 2.80096 13.4764 2.9052 13.7687 3.10049C14.061 3.29579 14.2888 3.57338 14.4233 3.89814C14.5578 4.22291 14.593 4.58027 14.5244 4.92504C14.4558 5.26982 14.2866 5.58651 14.038 5.83507C13.7894 6.08364 13.4727 6.25292 13.128 6.3215C12.7832 6.39007 12.4258 6.35488 12.1011 6.22035C11.7763 6.08583 11.4987 5.85802 11.3034 5.56574C11.1081 5.27346 11.0039 4.92983 11.0039 4.5783C11.0057 4.10748 11.1935 3.65645 11.5264 3.32352C11.8594 2.99059 12.3104 2.80276 12.7812 2.80096ZM5.12498 11.2775C4.77346 11.2775 4.42983 11.1733 4.13754 10.978C3.84526 10.7827 3.61745 10.5051 3.48293 10.1803C3.34841 9.85557 3.31321 9.49821 3.38179 9.15343C3.45037 8.80866 3.61964 8.49197 3.86821 8.24341C4.11678 7.99484 4.43347 7.82556 4.77824 7.75698C5.12301 7.68841 5.48037 7.7236 5.80514 7.85813C6.12991 7.99265 6.40749 8.22046 6.60279 8.51274C6.79809 8.80502 6.90233 9.14865 6.90233 9.50018C6.90052 9.971 6.71269 10.422 6.37976 10.755C6.04684 11.0879 5.59581 11.2757 5.12498 11.2775ZM12.7812 16.1994C12.4297 16.1994 12.0861 16.0952 11.7938 15.8999C11.5015 15.7046 11.2737 15.427 11.1392 15.1022C11.0047 14.7774 10.9695 14.4201 11.038 14.0753C11.1066 13.7305 11.2759 13.4138 11.5245 13.1653C11.773 12.9167 12.0897 12.7474 12.4345 12.6789C12.7793 12.6103 13.1366 12.6455 13.4614 12.78C13.7862 12.9145 14.0637 13.1423 14.259 13.4346C14.4543 13.7269 14.5586 14.0705 14.5586 14.4221C14.5568 14.8929 14.3689 15.3439 14.036 15.6768C13.7031 16.0098 13.2521 16.1976 12.7812 16.1994Z" fill="black"/>
</svg>
