<svg width="100" height="32" viewBox="0 0 100 32" fill="none" xmlns="http://www.w3.org/2000/svg">
<path d="M6.82504 14H4.10043V3.41797H0.611172V1.15039H10.3143V3.41797H6.82504V14ZM17.8353 3.98926C17.97 3.98926 18.1253 3.99805 18.3011 4.01562C18.4827 4.02734 18.6292 4.04492 18.7405 4.06836L18.5384 6.58203C18.4505 6.55273 18.3245 6.53223 18.1605 6.52051C18.0023 6.50293 17.8646 6.49414 17.7474 6.49414C17.4017 6.49414 17.0648 6.53809 16.7366 6.62598C16.4144 6.71387 16.1243 6.85742 15.8665 7.05664C15.6087 7.25 15.4036 7.50781 15.2513 7.83008C15.1048 8.14648 15.0316 8.53613 15.0316 8.99902V14H12.3509V4.17383H14.3812L14.7767 5.82617H14.9085C15.1019 5.49219 15.3421 5.1875 15.6292 4.91211C15.9222 4.63086 16.2532 4.4082 16.6224 4.24414C16.9974 4.07422 17.4017 3.98926 17.8353 3.98926ZM24.8201 3.97168C26.1385 3.97168 27.1492 4.25879 27.8523 4.83301C28.5555 5.40723 28.907 6.28027 28.907 7.45215V14H27.035L26.5164 12.6641H26.4461C26.1648 13.0156 25.8777 13.3027 25.5848 13.5254C25.2918 13.748 24.9549 13.9121 24.574 14.0176C24.1932 14.123 23.7303 14.1758 23.1854 14.1758C22.6053 14.1758 22.0838 14.0645 21.6209 13.8418C21.1639 13.6191 20.8035 13.2793 20.5398 12.8223C20.2762 12.3594 20.1443 11.7734 20.1443 11.0645C20.1443 10.0215 20.5105 9.25391 21.243 8.76172C21.9754 8.26367 23.074 7.98828 24.5389 7.93555L26.2439 7.88281V7.45215C26.2439 6.93652 26.1092 6.55859 25.8396 6.31836C25.5701 6.07812 25.1951 5.95801 24.7146 5.95801C24.24 5.95801 23.7742 6.02539 23.3172 6.16016C22.8602 6.29492 22.4031 6.46484 21.9461 6.66992L21.0584 4.85938C21.5799 4.58398 22.1629 4.36719 22.8074 4.20898C23.4578 4.05078 24.1287 3.97168 24.8201 3.97168ZM26.2439 9.44727L25.2068 9.48242C24.3396 9.50586 23.7361 9.66113 23.3963 9.94824C23.0623 10.2354 22.8953 10.6133 22.8953 11.082C22.8953 11.4922 23.0154 11.7852 23.2557 11.9609C23.4959 12.1309 23.8094 12.2158 24.1961 12.2158C24.7703 12.2158 25.2537 12.0459 25.6463 11.7061C26.0447 11.3662 26.2439 10.8828 26.2439 10.2559V9.44727ZM37.5266 3.98926C38.5755 3.98926 39.4192 4.27637 40.0579 4.85059C40.6966 5.41895 41.0159 6.33301 41.0159 7.59277V14H38.3352V8.26074C38.3352 7.55762 38.2063 7.02734 37.9485 6.66992C37.6966 6.3125 37.2981 6.13379 36.7532 6.13379C35.9329 6.13379 35.3733 6.41211 35.0745 6.96875C34.7757 7.52539 34.6262 8.32812 34.6262 9.37695V14H31.9456V4.17383H33.9934L34.3538 5.43066H34.5032C34.7141 5.09082 34.9749 4.81543 35.2854 4.60449C35.6018 4.39355 35.9505 4.23828 36.3313 4.13867C36.718 4.03906 37.1165 3.98926 37.5266 3.98926ZM50.9011 11.082C50.9011 11.75 50.7429 12.3154 50.4265 12.7783C50.116 13.2354 49.6502 13.584 49.0291 13.8242C48.408 14.0586 47.6345 14.1758 46.7088 14.1758C46.0232 14.1758 45.4343 14.1318 44.9422 14.0439C44.4558 13.9561 43.9636 13.8096 43.4656 13.6045V11.3896C43.9988 11.6299 44.5701 11.8291 45.1795 11.9873C45.7947 12.1396 46.3338 12.2158 46.7966 12.2158C47.3181 12.2158 47.6902 12.1396 47.9129 11.9873C48.1414 11.8291 48.2556 11.624 48.2556 11.3721C48.2556 11.208 48.2088 11.0615 48.115 10.9326C48.0271 10.7979 47.8338 10.6484 47.5349 10.4844C47.2361 10.3145 46.7673 10.0947 46.1287 9.8252C45.5134 9.56738 45.0066 9.30664 44.6082 9.04297C44.2156 8.7793 43.9226 8.46875 43.7293 8.11133C43.5418 7.74805 43.448 7.28809 43.448 6.73145C43.448 5.82324 43.7996 5.14062 44.5027 4.68359C45.2117 4.2207 46.158 3.98926 47.3416 3.98926C47.9509 3.98926 48.531 4.05078 49.0818 4.17383C49.6384 4.29688 50.2097 4.49316 50.7957 4.7627L49.9871 6.69629C49.5007 6.48535 49.0408 6.3125 48.6072 6.17773C48.1795 6.04297 47.7429 5.97559 47.2976 5.97559C46.905 5.97559 46.6091 6.02832 46.4099 6.13379C46.2107 6.23926 46.1111 6.40039 46.1111 6.61719C46.1111 6.77539 46.1609 6.91602 46.2605 7.03906C46.366 7.16211 46.5652 7.2998 46.8582 7.45215C47.157 7.59863 47.5935 7.78906 48.1677 8.02344C48.7244 8.25195 49.2078 8.49219 49.6179 8.74414C50.0281 8.99023 50.3445 9.29785 50.5672 9.66699C50.7898 10.0303 50.9011 10.502 50.9011 11.082ZM63.8777 3.2334C63.3562 3.2334 62.8933 3.33594 62.489 3.54102C62.0905 3.74023 61.7536 4.03027 61.4782 4.41113C61.2087 4.79199 61.0036 5.25195 60.863 5.79102C60.7224 6.33008 60.6521 6.93652 60.6521 7.61035C60.6521 8.51855 60.7634 9.29492 60.9861 9.93945C61.2146 10.5781 61.5661 11.0674 62.0407 11.4072C62.5154 11.7412 63.1277 11.9082 63.8777 11.9082C64.3991 11.9082 64.9206 11.8496 65.4421 11.7324C65.9695 11.6152 66.5407 11.4482 67.156 11.2314V13.5166C66.5876 13.751 66.028 13.918 65.4773 14.0176C64.9265 14.123 64.3083 14.1758 63.6228 14.1758C62.2986 14.1758 61.2087 13.9033 60.3532 13.3584C59.5036 12.8076 58.8737 12.04 58.4636 11.0557C58.0534 10.0654 57.8484 8.91113 57.8484 7.59277C57.8484 6.62012 57.9802 5.72949 58.2439 4.9209C58.5075 4.1123 58.8943 3.41211 59.404 2.82031C59.9138 2.22852 60.5437 1.77148 61.2937 1.44922C62.0437 1.12695 62.905 0.96582 63.8777 0.96582C64.5163 0.96582 65.155 1.04785 65.7937 1.21191C66.4382 1.37012 67.0534 1.58984 67.6394 1.87109L66.7605 4.08594C66.28 3.85742 65.7966 3.6582 65.3103 3.48828C64.8239 3.31836 64.3464 3.2334 63.8777 3.2334ZM73.9826 3.97168C75.301 3.97168 76.3117 4.25879 77.0148 4.83301C77.718 5.40723 78.0695 6.28027 78.0695 7.45215V14H76.1975L75.6789 12.6641H75.6086C75.3273 13.0156 75.0402 13.3027 74.7473 13.5254C74.4543 13.748 74.1174 13.9121 73.7365 14.0176C73.3557 14.123 72.8928 14.1758 72.3479 14.1758C71.7678 14.1758 71.2463 14.0645 70.7834 13.8418C70.3264 13.6191 69.966 13.2793 69.7023 12.8223C69.4387 12.3594 69.3068 11.7734 69.3068 11.0645C69.3068 10.0215 69.673 9.25391 70.4055 8.76172C71.1379 8.26367 72.2365 7.98828 73.7014 7.93555L75.4064 7.88281V7.45215C75.4064 6.93652 75.2717 6.55859 75.0022 6.31836C74.7326 6.07812 74.3576 5.95801 73.8772 5.95801C73.4025 5.95801 72.9367 6.02539 72.4797 6.16016C72.0227 6.29492 71.5656 6.46484 71.1086 6.66992L70.2209 4.85938C70.7424 4.58398 71.3254 4.36719 71.9699 4.20898C72.6203 4.05078 73.2912 3.97168 73.9826 3.97168ZM75.4064 9.44727L74.3693 9.48242C73.5022 9.50586 72.8986 9.66113 72.5588 9.94824C72.2248 10.2354 72.0578 10.6133 72.0578 11.082C72.0578 11.4922 72.1779 11.7852 72.4182 11.9609C72.6584 12.1309 72.9719 12.2158 73.3586 12.2158C73.9328 12.2158 74.4162 12.0459 74.8088 11.7061C75.2072 11.3662 75.4064 10.8828 75.4064 10.2559V9.44727ZM87.9636 11.082C87.9636 11.75 87.8054 12.3154 87.489 12.7783C87.1784 13.2354 86.7126 13.584 86.0915 13.8242C85.4704 14.0586 84.697 14.1758 83.7712 14.1758C83.0856 14.1758 82.4968 14.1318 82.0046 14.0439C81.5182 13.9561 81.0261 13.8096 80.528 13.6045V11.3896C81.0612 11.6299 81.6325 11.8291 82.2419 11.9873C82.8571 12.1396 83.3962 12.2158 83.8591 12.2158C84.3806 12.2158 84.7526 12.1396 84.9753 11.9873C85.2038 11.8291 85.3181 11.624 85.3181 11.3721C85.3181 11.208 85.2712 11.0615 85.1774 10.9326C85.0895 10.7979 84.8962 10.6484 84.5974 10.4844C84.2985 10.3145 83.8298 10.0947 83.1911 9.8252C82.5759 9.56738 82.069 9.30664 81.6706 9.04297C81.278 8.7793 80.985 8.46875 80.7917 8.11133C80.6042 7.74805 80.5104 7.28809 80.5104 6.73145C80.5104 5.82324 80.862 5.14062 81.5651 4.68359C82.2741 4.2207 83.2204 3.98926 84.404 3.98926C85.0134 3.98926 85.5934 4.05078 86.1442 4.17383C86.7009 4.29688 87.2722 4.49316 87.8581 4.7627L87.0495 6.69629C86.5632 6.48535 86.1032 6.3125 85.6696 6.17773C85.2419 6.04297 84.8054 5.97559 84.36 5.97559C83.9675 5.97559 83.6716 6.02832 83.4724 6.13379C83.2731 6.23926 83.1735 6.40039 83.1735 6.61719C83.1735 6.77539 83.2233 6.91602 83.3229 7.03906C83.4284 7.16211 83.6276 7.2998 83.9206 7.45215C84.2194 7.59863 84.6559 7.78906 85.2302 8.02344C85.7868 8.25195 86.2702 8.49219 86.6804 8.74414C87.0905 8.99023 87.4069 9.29785 87.6296 9.66699C87.8522 10.0303 87.9636 10.502 87.9636 11.082ZM93.006 0.324219V3.11035C93.006 3.59668 92.9884 4.05957 92.9533 4.49902C92.924 4.93848 92.9005 5.24902 92.883 5.43066H93.0236C93.2345 5.09082 93.4836 4.81543 93.7707 4.60449C94.0636 4.39355 94.3859 4.23828 94.7375 4.13867C95.089 4.03906 95.4669 3.98926 95.8712 3.98926C96.5802 3.98926 97.1984 4.11523 97.7257 4.36719C98.2531 4.61328 98.6632 5.00293 98.9562 5.53613C99.2492 6.06348 99.3957 6.74902 99.3957 7.59277V14H96.715V8.26074C96.715 7.55762 96.5861 7.02734 96.3283 6.66992C96.0705 6.3125 95.672 6.13379 95.133 6.13379C94.5939 6.13379 94.1691 6.25977 93.8586 6.51172C93.548 6.75781 93.3283 7.12402 93.1994 7.61035C93.0705 8.09082 93.006 8.67969 93.006 9.37695V14H90.3253V0.324219H93.006ZM21.4124 27.4316C21.4124 28.1934 21.2279 28.8555 20.8587 29.418C20.4896 29.9805 19.9505 30.4141 19.2415 30.7188C18.5384 31.0234 17.6829 31.1758 16.6751 31.1758C16.2298 31.1758 15.7933 31.1465 15.3655 31.0879C14.9437 31.0293 14.5364 30.9443 14.1439 30.833C13.7571 30.7158 13.388 30.5723 13.0364 30.4023V27.8711C13.6458 28.1406 14.2786 28.3838 14.9349 28.6006C15.5911 28.8174 16.2415 28.9258 16.8861 28.9258C17.3314 28.9258 17.6888 28.8672 17.9583 28.75C18.2337 28.6328 18.4329 28.4717 18.556 28.2666C18.679 28.0615 18.7405 27.8271 18.7405 27.5635C18.7405 27.2412 18.6321 26.9658 18.4154 26.7373C18.1986 26.5088 17.8997 26.2949 17.5189 26.0957C17.1439 25.8965 16.7191 25.6826 16.2445 25.4541C15.9456 25.3135 15.6204 25.1436 15.2689 24.9443C14.9173 24.7393 14.5833 24.4902 14.2669 24.1973C13.9505 23.9043 13.6898 23.5498 13.4847 23.1338C13.2855 22.7119 13.1859 22.208 13.1859 21.6221C13.1859 20.8545 13.3616 20.1982 13.7132 19.6533C14.0648 19.1084 14.5657 18.6924 15.2161 18.4053C15.8724 18.1123 16.6458 17.9658 17.5364 17.9658C18.2044 17.9658 18.8402 18.0449 19.4437 18.2031C20.053 18.3555 20.6888 18.5781 21.3509 18.8711L20.472 20.9893C19.8802 20.749 19.3499 20.5645 18.8812 20.4355C18.4124 20.3008 17.9349 20.2334 17.4486 20.2334C17.1087 20.2334 16.8187 20.2891 16.5784 20.4004C16.3382 20.5059 16.1566 20.6582 16.0335 20.8574C15.9105 21.0508 15.8489 21.2764 15.8489 21.5342C15.8489 21.8389 15.9368 22.0967 16.1126 22.3076C16.2943 22.5127 16.5638 22.7119 16.9212 22.9053C17.2845 23.0986 17.7357 23.3242 18.2747 23.582C18.931 23.8926 19.4905 24.2178 19.9534 24.5576C20.4222 24.8916 20.7825 25.2871 21.0345 25.7441C21.2864 26.1953 21.4124 26.7578 21.4124 27.4316ZM32.7303 26.0693C32.7303 26.8896 32.6189 27.6162 32.3963 28.249C32.1795 28.8818 31.8602 29.418 31.4383 29.8574C31.0223 30.291 30.5184 30.6191 29.9266 30.8418C29.3406 31.0645 28.6785 31.1758 27.9402 31.1758C27.2488 31.1758 26.6131 31.0645 26.033 30.8418C25.4588 30.6191 24.9578 30.291 24.5301 29.8574C24.1082 29.418 23.7801 28.8818 23.5457 28.249C23.3172 27.6162 23.2029 26.8896 23.2029 26.0693C23.2029 24.9795 23.3963 24.0566 23.783 23.3008C24.1697 22.5449 24.7205 21.9707 25.4354 21.5781C26.1502 21.1855 27.0027 20.9893 27.993 20.9893C28.9129 20.9893 29.7273 21.1855 30.4363 21.5781C31.1512 21.9707 31.7107 22.5449 32.115 23.3008C32.5252 24.0566 32.7303 24.9795 32.7303 26.0693ZM25.9363 26.0693C25.9363 26.7139 26.0066 27.2559 26.1473 27.6953C26.2879 28.1348 26.5076 28.4658 26.8064 28.6885C27.1053 28.9111 27.4949 29.0225 27.9754 29.0225C28.45 29.0225 28.8338 28.9111 29.1268 28.6885C29.4256 28.4658 29.6424 28.1348 29.7771 27.6953C29.9178 27.2559 29.9881 26.7139 29.9881 26.0693C29.9881 25.4189 29.9178 24.8799 29.7771 24.4521C29.6424 24.0186 29.4256 23.6934 29.1268 23.4766C28.8279 23.2598 28.4383 23.1514 27.9578 23.1514C27.2488 23.1514 26.7332 23.3945 26.4109 23.8809C26.0945 24.3672 25.9363 25.0967 25.9363 26.0693ZM37.8958 31H35.2151V17.3242H37.8958V31ZM50.0046 21.1738V31H47.948L47.5877 29.7432H47.447C47.2361 30.0771 46.9724 30.3496 46.656 30.5605C46.3396 30.7715 45.991 30.9268 45.6101 31.0264C45.2293 31.126 44.8337 31.1758 44.4236 31.1758C43.7205 31.1758 43.1082 31.0527 42.5867 30.8066C42.0652 30.5547 41.658 30.165 41.365 29.6377C41.0779 29.1104 40.9343 28.4248 40.9343 27.5811V21.1738H43.615V26.9131C43.615 27.6162 43.741 28.1465 43.9929 28.5039C44.2449 28.8613 44.6462 29.04 45.197 29.04C45.742 29.04 46.1697 28.917 46.4802 28.6709C46.7908 28.4189 47.0076 28.0527 47.1306 27.5723C47.2595 27.0859 47.324 26.4941 47.324 25.7969V21.1738H50.0046ZM57.2268 29.04C57.5198 29.04 57.8039 29.0107 58.0793 28.9521C58.3606 28.8936 58.6389 28.8203 58.9143 28.7324V30.7275C58.6272 30.8564 58.2698 30.9619 57.842 31.0439C57.4202 31.1318 56.9573 31.1758 56.4534 31.1758C55.8674 31.1758 55.3401 31.082 54.8713 30.8945C54.4084 30.7012 54.0422 30.3701 53.7727 29.9014C53.509 29.4268 53.3772 28.7676 53.3772 27.9238V23.1865H52.094V22.0527L53.5705 21.1562L54.344 19.082H56.0579V21.1738H58.8088V23.1865H56.0579V27.9238C56.0579 28.2988 56.1633 28.5801 56.3743 28.7676C56.5911 28.9492 56.8752 29.04 57.2268 29.04ZM63.8601 21.1738V31H61.1794V21.1738H63.8601ZM62.5241 17.3242C62.9226 17.3242 63.2654 17.418 63.5525 17.6055C63.8396 17.7871 63.9831 18.1299 63.9831 18.6338C63.9831 19.1318 63.8396 19.4775 63.5525 19.6709C63.2654 19.8584 62.9226 19.9521 62.5241 19.9521C62.1198 19.9521 61.7741 19.8584 61.487 19.6709C61.2058 19.4775 61.0652 19.1318 61.0652 18.6338C61.0652 18.1299 61.2058 17.7871 61.487 17.6055C61.7741 17.418 62.1198 17.3242 62.5241 17.3242ZM75.8811 26.0693C75.8811 26.8896 75.7697 27.6162 75.5471 28.249C75.3303 28.8818 75.0109 29.418 74.5891 29.8574C74.173 30.291 73.6691 30.6191 73.0773 30.8418C72.4914 31.0645 71.8293 31.1758 71.091 31.1758C70.3996 31.1758 69.7639 31.0645 69.1838 30.8418C68.6096 30.6191 68.1086 30.291 67.6809 29.8574C67.259 29.418 66.9309 28.8818 66.6965 28.249C66.468 27.6162 66.3537 26.8896 66.3537 26.0693C66.3537 24.9795 66.5471 24.0566 66.9338 23.3008C67.3205 22.5449 67.8713 21.9707 68.5861 21.5781C69.301 21.1855 70.1535 20.9893 71.1438 20.9893C72.0637 20.9893 72.8781 21.1855 73.5871 21.5781C74.302 21.9707 74.8615 22.5449 75.2658 23.3008C75.676 24.0566 75.8811 24.9795 75.8811 26.0693ZM69.0871 26.0693C69.0871 26.7139 69.1574 27.2559 69.298 27.6953C69.4387 28.1348 69.6584 28.4658 69.9572 28.6885C70.2561 28.9111 70.6457 29.0225 71.1262 29.0225C71.6008 29.0225 71.9846 28.9111 72.2775 28.6885C72.5764 28.4658 72.7932 28.1348 72.9279 27.6953C73.0686 27.2559 73.1389 26.7139 73.1389 26.0693C73.1389 25.4189 73.0686 24.8799 72.9279 24.4521C72.7932 24.0186 72.5764 23.6934 72.2775 23.4766C71.9787 23.2598 71.5891 23.1514 71.1086 23.1514C70.3996 23.1514 69.884 23.3945 69.5617 23.8809C69.2453 24.3672 69.0871 25.0967 69.0871 26.0693ZM83.947 20.9893C84.9958 20.9893 85.8395 21.2764 86.4782 21.8506C87.1169 22.4189 87.4362 23.333 87.4362 24.5928V31H84.7555V25.2607C84.7555 24.5576 84.6266 24.0273 84.3688 23.6699C84.1169 23.3125 83.7184 23.1338 83.1735 23.1338C82.3532 23.1338 81.7936 23.4121 81.4948 23.9688C81.196 24.5254 81.0466 25.3281 81.0466 26.377V31H78.3659V21.1738H80.4137L80.7741 22.4307H80.9235C81.1345 22.0908 81.3952 21.8154 81.7057 21.6045C82.0221 21.3936 82.3708 21.2383 82.7516 21.1387C83.1384 21.0391 83.5368 20.9893 83.947 20.9893Z" fill="#4BAF4D"/>
</svg>
