<svg width="74" height="74" viewBox="0 0 74 74" fill="none" xmlns="http://www.w3.org/2000/svg">
<g clip-path="url(#clip0_341_965)">
<circle cx="37" cy="38" r="37" fill="#BBFFB5"/>
<path d="M10.1899 59.0127C10.1899 59.0127 17.9218 49.1406 36.9999 49.1406C56.078 49.1406 63.8133 59.0127 63.8133 59.0127M36.9999 37C39.7598 37 42.4067 35.9036 44.3582 33.9521C46.3098 32.0005 47.4062 29.3537 47.4062 26.5938C47.4062 23.8338 46.3098 21.187 44.3582 19.2354C42.4067 17.2839 39.7598 16.1875 36.9999 16.1875C34.24 16.1875 31.5931 17.2839 29.6416 19.2354C27.69 21.187 26.5937 23.8338 26.5937 26.5938C26.5937 29.3537 27.69 32.0005 29.6416 33.9521C31.5931 35.9036 34.24 37 36.9999 37Z" stroke="#3A3A3A" stroke-width="2" stroke-linecap="round" stroke-linejoin="round"/>
</g>
<defs>
<clipPath id="clip0_341_965">
<rect width="74" height="74" fill="white"/>
</clipPath>
</defs>
</svg>
