<svg fill="none" height="35" viewBox="0 0 35 35" width="35" xmlns="http://www.w3.org/2000/svg">
    <path
        d="M29.5312 10.1172H7.65625C7.29365 10.1172 6.9459 9.97315 6.6895 9.71675C6.4331 9.46035 6.28906 9.1126 6.28906 8.75C6.28906 8.3874 6.4331 8.03965 6.6895 7.78325C6.9459 7.52685 7.29365 7.38281 7.65625 7.38281H26.25C26.4676 7.38281 26.6762 7.29639 26.83 7.14255C26.9839 6.98871 27.0703 6.78006 27.0703 6.5625C27.0703 6.34494 26.9839 6.13629 26.83 5.98245C26.6762 5.82861 26.4676 5.74219 26.25 5.74219H7.65625C6.85964 5.74578 6.09668 6.06383 5.53338 6.62713C4.97008 7.19043 4.65203 7.95339 4.64844 8.75V26.25C4.65203 27.0466 4.97008 27.8096 5.53338 28.3729C6.09668 28.9362 6.85964 29.2542 7.65625 29.2578H29.5312C30.0389 29.2578 30.5257 29.0562 30.8847 28.6972C31.2437 28.3382 31.4453 27.8514 31.4453 27.3438V12.0312C31.4453 11.5236 31.2437 11.0368 30.8847 10.6778C30.5257 10.3188 30.0389 10.1172 29.5312 10.1172ZM29.8047 27.3438C29.8047 27.4163 29.7759 27.4858 29.7246 27.5371C29.6733 27.5884 29.6038 27.6172 29.5312 27.6172H7.65625C7.29365 27.6172 6.9459 27.4731 6.6895 27.2167C6.4331 26.9604 6.28906 26.6126 6.28906 26.25V11.4297C6.713 11.6441 7.18118 11.7564 7.65625 11.7578H29.5312C29.6038 11.7578 29.6733 11.7866 29.7246 11.8379C29.7759 11.8892 29.8047 11.9587 29.8047 12.0312V27.3438ZM25.9766 19.6875C25.9766 19.9579 25.8964 20.2222 25.7462 20.4471C25.5959 20.6719 25.3824 20.8471 25.1326 20.9506C24.8828 21.0541 24.6079 21.0812 24.3427 21.0284C24.0774 20.9757 23.8338 20.8455 23.6426 20.6542C23.4514 20.463 23.3212 20.2194 23.2685 19.9542C23.2157 19.689 23.2428 19.4141 23.3463 19.1643C23.4497 18.9145 23.625 18.701 23.8498 18.5507C24.0746 18.4005 24.339 18.3203 24.6094 18.3203C24.972 18.3203 25.3197 18.4644 25.5761 18.7208C25.8325 18.9771 25.9766 19.3249 25.9766 19.6875Z"
        fill="#0A0A0A" />
</svg>
